<svg id="Layer_1" data-name="Layer 1" xmlns="http://www.w3.org/2000/svg" viewBox="0 0 198 198"><defs><style>.cls-1{fill:#231f20;}</style></defs><path class="cls-1" d="M99,149A49.95,49.95,0,1,1,149,99,50,50,0,0,1,99,149Zm0-96.9A47,47,0,1,0,146,99,47,47,0,0,0,99,52.05Z"/><path class="cls-1" d="M114.88,144.27a7.31,7.31,0,0,1-4.37-1.43c-2-1.51-2.34-4.62-2.37-5v-.15l.11-82.34A4,4,0,0,0,104,53.3c-3,.26-3.43,2.34-3.5,2.88v54.69c-.11,3-1.93,8.66-8,8.85s-8.15-5.9-8.37-9.16V85.29c-.15-.56-1-2.82-4.64-3s-4.27,5.1-4.33,5.72v18.07l0,.16A7.45,7.45,0,0,1,67.56,112h0a5.53,5.53,0,0,1-4.2-1.74c-2-2.23-1.91-5.77-1.86-6.43V98.91l-.24-4.77c-.22-.66-.9-2.12-1.88-2.36s-2.17.55-3.65,2.13-3.18,6.92-3.66,8.78L49.16,102c.2-.76,2-7.51,4.38-10.08s4.52-3.5,6.56-3c2.93.71,4,4.21,4.09,4.6l.06.33.25,5V104c-.06.78,0,3.06,1.09,4.22a2.54,2.54,0,0,0,2,.76h0a4.43,4.43,0,0,0,4.58-3.18V87.87c.23-3,2.11-8.73,7.44-8.54,5.16.2,7.16,3.69,7.5,5.51l0,.28V110.4c0,.63.65,6.51,5.27,6.33s5.09-5.34,5.11-5.93V56a6.41,6.41,0,0,1,6.22-5.67,7,7,0,0,1,7.44,4.25l.08.25-.11,82.84a4.87,4.87,0,0,0,1.2,2.8,4,4,0,0,0,5.24-.33c2.58-2.93,2.26-9.26,1.92-11.45l0-.22-.38-39.32c0-.12-.25-4.78,2.5-7.51a6.9,6.9,0,0,1,5.55-1.89,7.5,7.5,0,0,1,7.4,7.7l.19,21.2c0,.16.18,4.57,3.7,5.09,2,.29,5.72-4.83,7.49-16.75l3,.44c-.51,3.41-3.42,20.4-10.89,19.28-4.83-.71-6.21-5.55-6.27-8l-.19-21.26a4.59,4.59,0,0,0-4.59-4.7,4,4,0,0,0-3.24,1c-1.49,1.47-1.68,4.32-1.63,5.3l.39,39.28c.16,1.12,1.19,9.44-2.65,13.78A6.48,6.48,0,0,1,114.88,144.27Z"/><path class="cls-1" d="M104.23,63.45A6.47,6.47,0,1,1,110.69,57,6.47,6.47,0,0,1,104.23,63.45Zm0-10.43a4,4,0,1,0,4,4A4,4,0,0,0,104.23,53Z"/><path class="cls-1" d="M104.23,58.49a1.5,1.5,0,0,0,0-3,1.5,1.5,0,0,0,0,3Z"/><path class="cls-1" d="M115.23,143.45a6.47,6.47,0,1,1,6.46-6.46A6.47,6.47,0,0,1,115.23,143.45Zm0-10.43a4,4,0,1,0,4,4A4,4,0,0,0,115.23,133Z"/><path class="cls-1" d="M115.23,138.47a1.5,1.5,0,0,0,0-3,1.5,1.5,0,0,0,0,3Z"/></svg>