<svg id="Layer_1" data-name="Layer 1" xmlns="http://www.w3.org/2000/svg" viewBox="0 0 198 198"><defs><style>.cls-1{fill:#231f20;}</style></defs><rect class="cls-1" x="106.35" y="107.99" width="3" height="49.41"/><path class="cls-1" d="M107.32,108.69a25.07,25.07,0,1,1,25.07-25.07A25.09,25.09,0,0,1,107.32,108.69Zm0-47.14a22.07,22.07,0,1,0,22.07,22.07A22.09,22.09,0,0,0,107.32,61.55Z"/><path class="cls-1" d="M107,85.61c2.51,0,2.52-3.9,0-3.9s-2.51,3.9,0,3.9Z"/><polygon class="cls-1" points="106.75 52.16 87.65 38.72 89.38 36.27 104.77 47.1 107.03 36.7 125.64 49.06 123.98 51.56 109.03 41.63 106.75 52.16"/><path class="cls-1" d="M56.26,156.68a15.14,15.14,0,0,1-14.41-12.17,13.12,13.12,0,0,1,3.87-11.95c3.52-3.17,9.11-3.89,13-1.66a9,9,0,0,1,4.25,6,7.58,7.58,0,0,1-1.36,6.21,6.1,6.1,0,0,1-3.81,2.39,5.13,5.13,0,0,1-5.13-2.32,4.64,4.64,0,0,1,.63-5.53l2.17,2.08a1.62,1.62,0,0,0-.23,1.91,2.17,2.17,0,0,0,2.08.9,3.2,3.2,0,0,0,1.92-1.27,4.61,4.61,0,0,0,.79-3.78,5.91,5.91,0,0,0-2.8-4,8.61,8.61,0,0,0-9.5,1.29A10.11,10.11,0,0,0,44.8,144a12,12,0,0,0,12.13,9.67c4.86-.34,8.89-3.84,11.86-6.84a78.37,78.37,0,0,0,5.92-6.72l.08-.09,31.43-33.84,2.2,2L77,142a81.44,81.44,0,0,1-6.1,6.91c-3.34,3.38-7.93,7.32-13.79,7.73Z"/></svg>