<svg id="Layer_1" data-name="Layer 1" xmlns="http://www.w3.org/2000/svg" viewBox="0 0 198 198"><defs><style>.cls-1{fill:#231f20;}.cls-2{fill:#fff;}</style></defs><path class="cls-1" d="M99,149C75.62,149,56.59,126.54,56.59,99S75.62,49.05,99,49.05s42.41,22.41,42.41,50S122.39,149,99,149Zm0-96.9c-21.73,0-39.41,21.06-39.41,47S77.27,146,99,146,138.41,124.89,138.41,99,120.73,52.05,99,52.05Z"/><path class="cls-1" d="M87.89,144.42a23.64,23.64,0,0,1-10.22-2.56l1.08-2.26c6.09,2.93,11.51,3.11,16.12.53,6-3.39,9.37-11,10-17,.93-9.23-6.5-25.38-10.5-34.06a42.88,42.88,0,0,1-2.47-5.83C90,74.93,89,60.12,102.85,54.7c5-1.93,13.34-2.37,14.59-.22l-2.17,1.26a.77.77,0,0,0,.25.27c-1.08-.62-9.51-1.38-15.74,3.18s-8,12.4-5.47,23.55a56,56,0,0,0,2.3,5.33c4.1,8.89,11.72,25.45,10.72,35.35-.62,6.16-3.94,14.8-11.24,18.89A16.53,16.53,0,0,1,87.89,144.42Z"/><polygon class="cls-1" points="84.01 143.18 92.31 142.09 98.97 138.12 102.88 132.56 105.33 125.19 104.97 115.31 102.56 106.73 98.52 96.43 94.67 86.71 91.66 77 92.97 65.54 98.52 58.22 108.65 54.29 115.03 54.68 122.67 59.89 130.14 68.25 134.98 77 138.18 87.09 139.43 96.97 138.78 107.64 136.04 118.32 130.78 128.8 124 136.9 117.08 142.19 108.41 146.02 100 147.42 92.61 146.01 86.13 144.68 84.01 143.18"/><path class="cls-1" d="M85.8,127.31c5.79,0,5.8-9,0-9s-5.8,9,0,9Z"/><path class="cls-2" d="M111.8,81.31c5.79,0,5.8-9,0-9s-5.8,9,0,9Z"/></svg>