<svg id="Layer_1" data-name="Layer 1" xmlns="http://www.w3.org/2000/svg" viewBox="0 0 198 198"><defs><style>.cls-1{fill:#231f20;}.cls-2{fill:#fff;}</style></defs><path class="cls-1" d="M99,149A49.95,49.95,0,1,1,149,99,50,50,0,0,1,99,149Zm0-96.9A47,47,0,1,0,146,99,47,47,0,0,0,99,52.05Z"/><circle class="cls-2" cx="98.73" cy="99.15" r="13.45"/><path class="cls-1" d="M98.73,114.1a14.95,14.95,0,1,1,15-14.95A15,15,0,0,1,98.73,114.1Zm0-26.9a12,12,0,1,0,12,12A12,12,0,0,0,98.73,87.2Z"/><path class="cls-1" d="M98.73,101.1c2.51,0,2.51-3.9,0-3.9s-2.51,3.9,0,3.9Z"/><path class="cls-1" d="M88.69,90.51,86.4,88.58c.07-.09,7.51-9.34,11.11-38.22l3,.15c0,.26.66,25.82,9.82,38.14l-2.4,1.79C102.4,83,99.8,71.59,98.58,62.86,94.6,83.32,89,90.19,88.69,90.51Z"/><path class="cls-1" d="M87.87,111c-.09-.07-9.34-7.51-38.22-11.11l.15-3c.26,0,25.82-.66,38.14-9.82l1.79,2.4C82.32,95,70.88,97.58,62.15,98.8c20.46,4,27.32,9.61,27.65,9.89Z"/><path class="cls-1" d="M99.15,147.73l-3-.15c0-.26-.66-25.82-9.83-38.14l2.41-1.79c5.51,7.41,8.11,18.85,9.34,27.58,4-20.46,9.61-27.32,9.88-27.65l2.3,1.93C110.19,109.6,102.75,118.85,99.15,147.73Z"/><path class="cls-1" d="M108.73,111l-1.79-2.41c7.41-5.51,18.84-8.11,27.58-9.34-20.46-4-27.33-9.61-27.66-9.88l1.94-2.3c.09.08,9.34,7.52,38.22,11.11l-.16,3C146.61,101.22,121.05,101.87,108.73,111Z"/><path class="cls-1" d="M80.78,92.05a19.28,19.28,0,0,0-1.3-5.63c-1.47-3.64-3.86-5.82-7.09-6.49-8.34-1.74-8.94-11.51-8.1-16.44l3,.51a20.67,20.67,0,0,0,0,6.2C68,74.06,69.9,76.34,73,77,83.15,79.1,83.75,91.41,83.77,91.93Z"/><path class="cls-1" d="M86.05,89.62c0-.11-.68-11-8.55-12.68A10.66,10.66,0,0,1,70,71.87c-3-5.33-.68-12.49-.58-12.79l2.85,1c0,.06-2,6.21.35,10.37A7.67,7.67,0,0,0,78.12,74C88.26,76.14,89,88.93,89,89.47Z"/><path class="cls-1" d="M116.31,91.05l-3-.12c0-.52.62-12.83,10.78-14.94,3.1-.65,5-2.93,5.69-6.79a20.3,20.3,0,0,0,.05-6.2l3-.51c.85,4.93.24,14.7-8.09,16.44C116.81,80.57,116.31,90.94,116.31,91.05Z"/><path class="cls-1" d="M111,88.62l-3-.15c0-.54.79-13.33,10.92-15.47a7.65,7.65,0,0,0,5.47-3.61c2.39-4.18.37-10.29.35-10.35l2.84-1c.1.3,2.46,7.46-.58,12.79a10.62,10.62,0,0,1-7.46,5.07C111.68,77.6,111,88.51,111,88.62Z"/><path class="cls-1" d="M64.29,135.05c-.84-4.93-.24-14.7,8.1-16.43,7.88-1.65,8.38-12,8.39-12.12l3,.11c0,.53-.62,12.83-10.77,14.94-3.1.65-5,2.93-5.7,6.79a20.67,20.67,0,0,0,0,6.2Z"/><path class="cls-1" d="M69.46,139.47c-.1-.31-2.46-7.47.58-12.8a10.65,10.65,0,0,1,7.46-5.06C85.37,120,86,109,86.05,108.92l3,.15c0,.55-.78,13.33-10.92,15.47a7.63,7.63,0,0,0-5.47,3.62c-2.38,4.17-.36,10.29-.34,10.35Z"/><path class="cls-1" d="M132.79,135.05l-3-.51a20.3,20.3,0,0,0-.05-6.2c-.68-3.86-2.59-6.14-5.69-6.79-10.16-2.11-10.76-14.41-10.78-14.94l3-.11a19.19,19.19,0,0,0,1.29,5.63c1.47,3.63,3.86,5.81,7.1,6.49C133,120.35,133.64,130.12,132.79,135.05Z"/><path class="cls-1" d="M127.62,139.47l-2.84-1,1.42.48-1.42-.48c0-.06,2-6.21-.35-10.36a7.67,7.67,0,0,0-5.47-3.61c-10.13-2.14-10.89-14.92-10.92-15.47l3-.15c0,.11.68,11,8.55,12.69a10.61,10.61,0,0,1,7.46,5.06C130.08,132,127.72,139.16,127.62,139.47Z"/></svg>