<svg id="Layer_1" data-name="Layer 1" xmlns="http://www.w3.org/2000/svg" viewBox="0 0 198 198"><defs><style>.cls-1{fill:#231f20;}</style></defs><path class="cls-1" d="M99,149.43A50.43,50.43,0,1,1,149.43,99,50.48,50.48,0,0,1,99,149.43Zm0-97.86A47.43,47.43,0,1,0,146.43,99,47.49,47.49,0,0,0,99,51.57Z"/><rect class="cls-1" x="50.07" y="98.7" width="97.85" height="3"/><polygon class="cls-1" points="54.3 121.23 50.65 109.68 50.07 96.65 51.4 88.12 54.3 78.81 54.3 121.23"/><polygon class="cls-1" points="143.76 79.3 147.36 90.59 147.93 103.32 146.62 111.65 143.76 120.74 143.76 79.3"/></svg>