<svg id="Layer_1" data-name="Layer 1" xmlns="http://www.w3.org/2000/svg" viewBox="0 0 198 198"><defs><style>.cls-1{fill:#231f20;}.cls-2{fill:#fff;}</style></defs><circle class="cls-1" cx="97.95" cy="101.25" r="18.3"/><path class="cls-1" d="M98,120.81a19.56,19.56,0,1,1,19.56-19.56A19.58,19.58,0,0,1,98,120.81ZM98,84.2a17.06,17.06,0,1,0,17.06,17A17.07,17.07,0,0,0,98,84.2Z"/><path class="cls-1" d="M93.88,85.64c-3.67-1.18-8.9-1.94-11.59-4.87-3.74-4.09-3.6-11.32-2.38-16.3s-.1-7.49-5.68-7.66c-1.93-.06-1.93,2.94,0,3,4.36.14,2.69,3.51,2.23,6.47a24.47,24.47,0,0,0-.3,3.92,22.89,22.89,0,0,0,2,9.59c2.83,5.9,9.2,6.91,14.91,8.74,1.84.59,2.63-2.3.8-2.89Z"/><path class="cls-1" d="M86,96.16c-3.21-5.3-9.67-6.62-15.5-6-4.36.43-10.88,3.83-13.86-1.3-1.91-3.29.53-7-1.74-10.07-1.13-1.54-3.74,0-2.6,1.51,1.94,2.65,0,7,1.75,10.07a8.44,8.44,0,0,0,5.11,4c2.84.78,5.72-.2,8.48-.72,5.38-1,12.52-1.34,15.77,4,1,1.65,3.6.14,2.59-1.51Z"/><path class="cls-1" d="M93.68,83.92a10.36,10.36,0,0,1,.09-10.85,1.5,1.5,0,0,0-2.59-1.51,13.4,13.4,0,0,0-.09,13.87,1.5,1.5,0,0,0,2.59-1.51Z"/><path class="cls-1" d="M105.82,87.14c5.7-1.83,12.08-2.85,14.9-8.74a22.5,22.5,0,0,0,2-8.7,24.91,24.91,0,0,0-.26-4.81c-.46-3-2.14-6.34,2.23-6.47,1.93-.06,1.93-3.06,0-3-5.54.17-6.92,2.57-5.68,7.66,1.18,4.83,1.27,11.11-1.76,15.35-2.63,3.69-8.08,4.5-12.21,5.82-1.83.58-1,3.48.8,2.89Z"/><path class="cls-1" d="M115.52,96.11c3.1-5.26,10-5.1,15.25-4,2.68.55,5.5,1.49,8.25.72a8.24,8.24,0,0,0,5-4c1.73-3.09-.21-7.38,1.69-10.06,1.12-1.58-1.48-3.08-2.59-1.52-2.22,3.13.18,6.79-1.69,10.07-2.87,5-9.16,1.74-13.41,1.3-5.72-.58-12,.81-15.08,6a1.5,1.5,0,0,0,2.59,1.51Z"/><path class="cls-1" d="M105.32,84.18c3.45-4.1,3.5-8.85-.12-12.92-1.28-1.45-3.4.68-2.12,2.12a6.11,6.11,0,0,1,.12,8.67c-1.23,1.47.88,3.61,2.12,2.13Z"/><path class="cls-1" d="M100,115.43c4,1.21,10,2,12.52,5.74,2.71,4,2.5,9.56,1.45,14-1.2,5,.34,7.13,5.68,7.29,1.93.05,1.93-2.95,0-3-4.23-.12-2.71-3-2.23-5.93a23.08,23.08,0,0,0,.3-3.7,20.5,20.5,0,0,0-1.87-8.74c-2.9-5.88-9.3-6.79-15.05-8.51-1.85-.56-2.65,2.34-.8,2.89Z"/><path class="cls-1" d="M112.8,106.08c3.09,5.24,9.36,6.62,15.08,6,4.28-.43,10.51-3.79,13.42,1.31,1.86,3.28-.53,6.94,1.69,10.07,1.11,1.56,3.71.06,2.59-1.52-1.9-2.67,0-7-1.69-10.07a8.28,8.28,0,0,0-5-4c-2.76-.78-5.56.19-8.25.72-5.27,1-12.13,1.27-15.25-4a1.5,1.5,0,0,0-2.59,1.51Z"/><path class="cls-1" d="M97.08,112.7c-5.7,1.71-12.21,2.63-15,8.51A20.72,20.72,0,0,0,80.16,130a21.9,21.9,0,0,0,.3,3.7c.48,2.9,2,5.81-2.23,5.93-1.93.06-1.94,3.06,0,3,5.35-.15,6.89-2.21,5.68-7.29-1-4.37-1.24-10,1.44-13.95,2.54-3.72,8.49-4.53,12.53-5.74,1.84-.56,1.05-3.45-.8-2.9Z"/><path class="cls-1" d="M83.73,104.57c-3.23,5.32-10.42,5.09-15.77,4-2.76-.55-5.66-1.5-8.48-.72a8.47,8.47,0,0,0-5.12,4c-1.76,3.09.2,7.42-1.74,10.07-1.14,1.56,1.46,3.06,2.59,1.52,2.28-3.12-.17-6.79,1.74-10.07,3-5.09,9.54-1.74,13.86-1.31,5.82.58,12.3-.74,15.51-6,1-1.65-1.59-3.16-2.59-1.51Z"/><circle class="cls-2" cx="98.43" cy="101.03" r="1.64"/></svg>