<svg id="Layer_1" data-name="Layer 1" xmlns="http://www.w3.org/2000/svg" viewBox="0 0 198 198"><defs><style>.cls-1{fill:#231f20;}</style></defs><rect class="cls-1" x="101.9" y="120.05" width="3" height="39.92"/><path class="cls-1" d="M102.83,120.7A26.72,26.72,0,1,1,129.55,94,26.75,26.75,0,0,1,102.83,120.7Zm0-50.43A23.72,23.72,0,1,0,126.55,94,23.74,23.74,0,0,0,102.83,70.27Z"/><path class="cls-1" d="M103.47,96.78a1.5,1.5,0,0,0,0-3,1.5,1.5,0,0,0,0,3Z"/><rect class="cls-1" x="87.37" y="134.14" width="31.34" height="3"/><rect class="cls-1" x="104.99" y="54.75" width="35.09" height="3" transform="translate(7.25 126.17) rotate(-55.89)"/><polygon class="cls-1" points="134.42 51.23 131.42 51.22 131.44 42.8 122.72 46.99 121.42 44.29 134.46 38.03 134.42 51.23"/><path class="cls-1" d="M73.64,62.77,70.73,62c1.39-5.51.25-6.31.2-6.34-.8-.52-3.57.82-5.51,2.37l-1.88-2.34c1-.77,5.95-4.53,9-2.56C75.26,54.9,74.47,59.48,73.64,62.77Z"/><path class="cls-1" d="M103.47,102.65a7.37,7.37,0,1,1,5.21-2.16A7.31,7.31,0,0,1,103.47,102.65Zm0-12.73a5.37,5.37,0,1,0,3.8,1.57A5.38,5.38,0,0,0,103.47,89.92Z"/><rect class="cls-1" x="102.31" y="101.85" width="2" height="13.01"/><rect class="cls-1" x="95.7" y="106.06" width="14.85" height="2"/><path class="cls-1" d="M103.81,89.25l-2-.43c.22-1,2.29-9.92,7.19-11.24,2.16-.59,4.43.38,6.73,2.89l-1.48,1.35c-1.75-1.91-3.34-2.69-4.73-2.31C106.4,80.37,104.34,86.83,103.81,89.25Z"/><path class="cls-1" d="M113.88,85.47c-.44-1.64-.85-3.94.6-4.9,1.62-1.08,4.11.65,4.84,1.2l-1.22,1.59a4.45,4.45,0,0,0-2.52-1.12h0s-.36.47.23,2.72Z"/><rect class="cls-1" x="92.74" y="78.99" width="2" height="14.41" transform="translate(-33.55 89.9) rotate(-44.27)"/><polygon class="cls-1" points="87.87 86.18 86.43 78.06 94.71 80.55 94.14 82.46 88.97 80.91 89.84 85.83 87.87 86.18"/><path class="cls-1" d="M91.19,72.6l-1.6-2.54c1-.63,2-4.68,1.33-9.85-.57-4.35-2.39-9.38-5.81-10.44-3.08-1-7.29,1.39-12.15,6.81l-2.24-2c5.79-6.45,10.94-9,15.28-7.68,4.06,1.26,7,6.09,7.89,12.92C94.56,64.93,94,70.86,91.19,72.6Z"/></svg>