<svg id="Layer_1" data-name="Layer 1" xmlns="http://www.w3.org/2000/svg" viewBox="0 0 198 198"><defs><style>.cls-1{fill:#231f20;}</style></defs><rect class="cls-1" x="53.09" y="135.18" width="24.02" height="2.23"/><path class="cls-1" d="M144.91,137.12H120.83l1.3-1.67c15.64-20.06,10.28-38.81,10.23-39l0-.08c0-.21-4.12-21-18-29.11-13.54-8-25.27-2.86-25.39-2.8l-.35.11c-.16,0-16.94,4.11-22.76,29.16A45.09,45.09,0,0,0,77,135.27l-2.34,1.39A46.12,46.12,0,0,1,62.88,93.35C68.81,67.87,85.56,63,87.58,62.48c1.65-.67,14.41-5.32,28.62,3C130.82,74.11,135,94.64,135.3,96s5.18,19-9.31,38.89h18.92Z"/></svg>