<svg id="Layer_1" data-name="Layer 1" xmlns="http://www.w3.org/2000/svg" viewBox="0 0 198 198"><defs><style>.cls-1{fill:#231f20;}</style></defs><path class="cls-1" d="M99,126.42a26.26,26.26,0,1,1,26.26-26.26A26.29,26.29,0,0,1,99,126.42ZM99,76.9a23.25,23.25,0,1,0,19,9.85A23.17,23.17,0,0,0,99,76.9Z"/><path class="cls-1" d="M98.24,117.18c-13.1,0-21.43-5.5-21.55-5.58l.89-1.33c.18.12,18.14,11.92,42.84,0l.7,1.44A52.21,52.21,0,0,1,98.24,117.18Z"/><path class="cls-1" d="M99.06,106.73a69.15,69.15,0,0,1-25.19-4.48l.65-1.46c.22.1,22.77,9.74,48.91,0l.56,1.5A71.17,71.17,0,0,1,99.06,106.73Z"/><path class="cls-1" d="M109.66,123.24l-1.31-.91c18.85-27.22.31-44.58.12-44.75l1.08-1.18C109.74,76.58,129.31,94.88,109.66,123.24Z"/><path class="cls-1" d="M102.61,124.79,101.2,124a59.39,59.39,0,0,0,.35-48.81l1.47-.65A61.08,61.08,0,0,1,102.61,124.79Z"/><path class="cls-1" d="M120.42,89.84c-12.91-6.26-23.86-5.94-30.77-4.58a36,36,0,0,0-12.07,4.52l-.89-1.32c.18-.13,18.87-12.46,44.43-.06Z"/><path class="cls-1" d="M123.43,99.28c-26.16-9.76-48.69-.11-48.91,0l-.65-1.47a72.41,72.41,0,0,1,50.12,0Z"/><path class="cls-1" d="M89,123.75c-19.64-28.36-.08-46.66.12-46.84l1.08,1.18c-.78.71-18.71,17.57.12,44.75Z"/><path class="cls-1" d="M96,125.3c-.13-.23-12.3-23.31-.41-50.22l1.46.65a59.38,59.38,0,0,0,.35,48.81Z"/><path class="cls-1" d="M78.94,115.55H57.64a46.61,46.61,0,0,1-11.87-1.89c-8.33-2.48-14.1-7.1-16.7-13.35L26.35,93l1.46,1.23c6.59,5.56,9.08,5.84,9.85,5.71-8.27-13.45-4.44-16.86-4.28-17l.41-.34.32.43c4.75,6.5,10.44,6.82,12.91,6.59A32.77,32.77,0,0,1,34,73l-.39-1.41,1.17.87C57.35,89.2,80,82.91,80.23,82.84l.28,1c-.22.07-22.49,6.25-45-9.6A32.49,32.49,0,0,0,48.67,89.48l1,.59-1.11.32c-.08,0-8.24,2.22-14.82-6.21-.59,1.27-1.34,5.41,5.06,15.68l.17.26-.16.26a1.39,1.39,0,0,1-1,.56c-1.76.3-4.94-1.35-9.21-4.77L30,100c6,14.43,27.43,14.6,27.64,14.6h21.3Z"/><path class="cls-1" d="M140.36,116.06h-21.3v-1h21.3c.21,0,21.64-.18,27.65-14.62l1.39-3.76c-4.28,3.43-7.44,5.07-9.21,4.77a1.39,1.39,0,0,1-1-.56l-.16-.26.17-.26c6.4-10.26,5.64-14.4,5.06-15.68-6.58,8.43-14.74,6.23-14.82,6.21l-1.11-.32,1-.59A32.37,32.37,0,0,0,162.5,74.71c-22.52,15.85-44.79,9.67-45,9.6l.27-1c.23.07,22.91,6.34,45.46-10.39l1.17-.87L164,73.5a32.86,32.86,0,0,1-13,16.65c2.46.25,8.12,0,12.93-6.61l.32-.43.4.34c.17.14,4,3.55-4.28,17,.72.12,3.2-.12,9.86-5.73l1.46-1.22-2.71,7.29c-2.61,6.26-8.38,10.88-16.71,13.36A46.61,46.61,0,0,1,140.36,116.06Z"/></svg>