<svg id="Layer_1" data-name="Layer 1" xmlns="http://www.w3.org/2000/svg" viewBox="0 0 198 198"><defs><style>.cls-1{fill:#231f20;}.cls-2{fill:#fff;}</style></defs><circle class="cls-1" cx="99" cy="99" r="28.5"/><path class="cls-1" d="M99,128.75A29.75,29.75,0,1,1,128.76,99,29.78,29.78,0,0,1,99,128.75Zm0-57A27.25,27.25,0,1,0,126.26,99,27.28,27.28,0,0,0,99,71.75Z"/><path class="cls-1" d="M99,148.33A49.33,49.33,0,1,1,148.33,99,49.39,49.39,0,0,1,99,148.33Zm0-95.66A46.33,46.33,0,1,0,145.33,99,46.39,46.39,0,0,0,99,52.67Z"/><circle class="cls-2" cx="99" cy="99" r="12.08"/><path class="cls-1" d="M99,112.33A13.33,13.33,0,1,1,112.33,99,13.35,13.35,0,0,1,99,112.33Zm0-24.16A10.83,10.83,0,1,0,109.83,99,10.84,10.84,0,0,0,99,88.17Z"/><path class="cls-1" d="M99,101c2.51,0,2.51-3.9,0-3.9s-2.51,3.9,0,3.9Z"/></svg>