<svg id="Layer_1" data-name="Layer 1" xmlns="http://www.w3.org/2000/svg" viewBox="0 0 198 198"><defs><style>.cls-1{fill:#231f20;}</style></defs><path class="cls-1" d="M98.88,141.11c-1.83-1.23-4.84-1.31-6.13-3.18-1-1.46-1.75-4.58-.9-6.22s-1.69-3.23-2.59-1.51c-1.3,2.5-.68,5.87.44,8.33,1.58,3.48,4.84,3.27,7.67,5.17,1.6,1.08,3.11-1.51,1.51-2.59Z"/><path class="cls-1" d="M91.26,158.82c.11-3.27-.39-7.41.92-10.45,1.45-3.37,4.8-3.23,7.64-4.69,1.72-.88.2-3.47-1.51-2.59-3.41,1.75-6.69,1.56-8.67,5.46-1.8,3.55-1.25,8.43-1.38,12.27-.06,1.93,2.94,1.93,3,0Z"/><path class="cls-1" d="M99.5,143.7c2.7-1.82,6-1.65,7.56-5,1.11-2.41,1.47-5.64.19-8-.9-1.71-3.49-.19-2.59,1.51a6.52,6.52,0,0,1-.66,5.9c-1.31,1.72-4.25,1.81-6,3-1.59,1.08-.09,3.68,1.52,2.59Z"/><path class="cls-1" d="M108.6,158.82c-.12-3.85.42-8.72-1.38-12.27-2-3.87-5.26-3.72-8.66-5.46-1.72-.88-3.24,1.71-1.52,2.59,2.8,1.44,6.29,1.26,7.65,4.69,1.24,3.15.8,7.11.91,10.45.06,1.92,3.06,1.93,3,0Z"/><path class="cls-1" d="M97.37,124.73c-1.18.83-2.75,1-4.05,1.64a8.22,8.22,0,0,0-4.06,3.83c-.85,1.72,1.74,3.25,2.59,1.51,1.51-3,4.59-2.66,7-4.39,1.56-1.11.07-3.71-1.51-2.59Z"/><path class="cls-1" d="M88.26,109.61c.13,3.85-.42,8.72,1.38,12.27,2,3.87,5.27,3.72,8.67,5.46,1.71.88,3.23-1.71,1.51-2.59-2.8-1.44-6.29-1.26-7.64-4.69-1.24-3.15-.81-7.11-.92-10.45-.06-1.92-3.06-1.93-3,0Z"/><path class="cls-1" d="M98,127.32a19.57,19.57,0,0,0,3.32,1.52,6.23,6.23,0,0,1,3.36,3.37c.77,1.77,3.36.24,2.59-1.51a8.53,8.53,0,0,0-3.88-4.18c-1.25-.66-2.72-1-3.87-1.79-1.57-1.13-3.07,1.47-1.52,2.59Z"/><path class="cls-1" d="M105.6,109.61c-.11,3.27.39,7.41-.91,10.45-1.45,3.37-4.81,3.23-7.65,4.69-1.72.88-.2,3.47,1.52,2.59,3.41-1.75,6.68-1.56,8.66-5.46,1.8-3.55,1.26-8.43,1.38-12.27.06-1.93-2.94-1.93-3,0Z"/><path class="cls-1" d="M98.13,74.47a19,19,0,1,1-19,19A19.08,19.08,0,0,1,98.13,74.47Zm0,35.09a16,16,0,1,0-16-16A16.06,16.06,0,0,0,98.13,109.56Z"/><path class="cls-1" d="M98.13,91.75c-2.51,0-2.51,3.9,0,3.9s2.51-3.9,0-3.9Z"/><rect class="cls-1" x="97.44" y="57.72" width="3" height="18.25" transform="translate(-0.21 0.31) rotate(-0.18)"/><rect class="cls-1" x="89.28" y="56.97" width="41.3" height="3" transform="translate(2.02 120.59) rotate(-57.94)"/><rect class="cls-1" x="86.57" y="37.38" width="3" height="41.3" transform="matrix(0.85, -0.53, 0.53, 0.85, -17.37, 55.6)"/><rect class="cls-1" x="79.57" y="42.85" width="6.95" height="2.5" transform="translate(1.52 90.96) rotate(-57.86)"/><rect class="cls-1" x="113.99" y="40.61" width="2.5" height="6.98" transform="translate(-5.79 68.1) rotate(-32.16)"/><rect class="cls-1" x="96.13" y="52.98" width="2.5" height="5.72" transform="translate(-13.41 73.89) rotate(-39.08)"/><rect class="cls-1" x="98.18" y="54.3" width="5.07" height="2.5" transform="translate(-5.89 98.73) rotate(-50.93)"/></svg>