<svg id="Layer_1" data-name="Layer 1" xmlns="http://www.w3.org/2000/svg" viewBox="0 0 198 198"><defs><style>.cls-1{fill:none;}.cls-2{fill:#231f20;}</style></defs><rect class="cls-1" x="82.24" y="72.62" width="37.63" height="50.46"/><path class="cls-2" d="M99,81.49c4.52,3.09,11.53,3.08,14.68,7.87,2.68,4.07,4.52,11.86,2.15,16.36-.9,1.71,1.69,3.23,2.59,1.52,2.7-5.14,1.2-12.44-1.12-17.44-3.4-7.33-10.79-6.81-16.79-10.9-1.6-1.09-3.1,1.51-1.51,2.59Z"/><path class="cls-2" d="M117.4,42.52c-.27,7.81.59,16.74-1.94,24.25C112.37,75.9,103.81,75.13,96.79,79c-1.7.92-.19,3.51,1.51,2.59,3.59-2,7.78-2.06,11.39-3.92a18.59,18.59,0,0,0,7.78-7.73c4-7.89,2.63-18.85,2.93-27.37.07-1.93-2.93-1.93-3,0Z"/><path class="cls-2" d="M97.54,78.9C91.84,82.78,84.23,82.38,81,89.36c-2.29,4.91-3.2,11.8-.55,16.74.91,1.7,3.5.19,2.59-1.52-2.31-4.3-1.26-11.74,1.58-15.61,3.27-4.44,10.05-4.48,14.45-7.48,1.59-1.08.09-3.68-1.51-2.59Z"/><path class="cls-2" d="M77.6,42.52c.3,8.53-1,19.47,2.93,27.37a18.74,18.74,0,0,0,7.16,7.43c3.74,2.12,8.22,2.16,12,4.22,1.69.92,3.21-1.67,1.51-2.59-7-3.83-15.55-3-18.67-12.18C80,59.24,80.87,50.35,80.6,42.52c-.07-1.93-3.07-1.93-3,0Z"/><path class="cls-2" d="M100.46,119.1c2.71-1.92,6.28-2.42,9.29-3.77a17,17,0,0,0,8.62-8.09c.85-1.73-1.73-3.25-2.59-1.52-2,4-5.18,6.19-9.28,7.7-2.53.93-5.32,1.51-7.55,3.09-1.56,1.11-.07,3.71,1.51,2.59Z"/><path class="cls-2" d="M120.4,155.48c-.3-8.53,1-19.47-2.93-27.37a18.74,18.74,0,0,0-7.16-7.43c-3.74-2.12-8.22-2.16-12-4.22-1.69-.92-3.21,1.67-1.51,2.59,7,3.83,15.55,3,18.67,12.18,2.54,7.53,1.67,16.42,1.94,24.25.07,1.93,3.07,1.93,3,0Z"/><path class="cls-2" d="M99.05,116.51c-2.27-1.64-5.1-2.32-7.62-3.49A16,16,0,0,1,83,104.58c-.77-1.76-3.36-.24-2.59,1.52A18,18,0,0,0,88.64,115c2.87,1.53,6.25,2.21,8.9,4.12,1.57,1.13,3.07-1.47,1.51-2.59Z"/><path class="cls-2" d="M80.6,155.48c.27-7.81-.59-16.74,1.94-24.25,3.09-9.13,11.65-8.36,18.67-12.18,1.7-.92.19-3.51-1.51-2.59-3.59,2-7.78,2.06-11.39,3.92a18.59,18.59,0,0,0-7.78,7.73c-4,7.89-2.63,18.85-2.93,27.37-.07,1.93,2.93,1.93,3,0Z"/></svg>