<svg id="Layer_1" data-name="Layer 1" xmlns="http://www.w3.org/2000/svg" viewBox="0 0 198 198"><defs><style>.cls-1{fill:#231f20;}.cls-2{fill:#fff;}</style></defs><path class="cls-1" d="M99,149.09A50,50,0,1,1,149,99.14,50,50,0,0,1,99,149.09Zm0-96.9a47,47,0,1,0,46.95,47A47,47,0,0,0,99,52.19Z"/><path class="cls-1" d="M98.75,99.8h0c-6.45,0-6.58-22.86-6.57-25.46a86.87,86.87,0,0,1,1.58-17.25c1.21-5.58,2.84-8.18,5.11-8.18h0c2.28,0,3.89,2.61,5.07,8.21a86.06,86.06,0,0,1,1.49,17.25,86,86,0,0,1-1.58,17.24C102.65,97.2,101,99.8,98.75,99.8ZM98.87,52c-1.37,1-3.66,9-3.69,22.38s2.21,21.35,3.57,22.41c1.37-1,3.66-9,3.69-22.39S100.23,53,98.87,52Z"/><path class="cls-1" d="M98.63,148.8h0c-6.45,0-6.57-22.86-6.57-25.46s.25-25.43,6.69-25.43h0c6.45,0,6.57,22.86,6.57,25.46S105.06,148.8,98.63,148.8ZM98.74,101c-1.36,1.05-3.65,9-3.69,22.38h0c0,13.35,2.22,21.35,3.58,22.41,1.36-1.05,3.65-9,3.69-22.39S100.1,102,98.74,101Z"/><path class="cls-1" d="M61.39,130.21a3.26,3.26,0,0,1-2.81-1.16c-3.88-5.29,15.76-19.79,16.59-20.4a86.12,86.12,0,0,1,14.82-9c5.22-2.34,8.28-2.58,9.62-.74s.21,4.68-3.59,9a86.28,86.28,0,0,1-13,11.44C82.31,119.86,68.11,130.21,61.39,130.21Zm-.35-3c1.66.48,9.45-2.42,20.21-10.32s15.86-14.45,15.9-16.18c-1.65-.48-9.44,2.43-20.2,10.33S61.09,125.52,61,127.24Z"/><path class="cls-1" d="M100.9,101.22a3.25,3.25,0,0,1-2.81-1.16c-3.82-5.2,14.49-18.86,16.59-20.4a86.45,86.45,0,0,1,14.81-9c5.22-2.35,8.28-2.58,9.63-.74s.2,4.68-3.6,9a86.29,86.29,0,0,1-13,11.45C121.82,90.87,107.62,101.22,100.9,101.22Zm-.35-3c1.65.48,9.44-2.43,20.2-10.32s15.86-14.46,15.9-16.18c-1.66-.47-9.44,2.43-20.2,10.32S100.59,96.53,100.55,98.25Z"/><path class="cls-1" d="M136.39,130.08c-6.73,0-20.93-10.28-21.64-10.8a85.69,85.69,0,0,1-13-11.39c-3.81-4.27-5-7.11-3.63-9s4.4-1.62,9.63.71a87,87,0,0,1,14.85,8.91c.84.61,20.52,15,16.66,20.35A3.29,3.29,0,0,1,136.39,130.08Zm-35.84-29.34c0,1.72,5.18,8.26,16,16.12s18.59,10.73,20.24,10.25c-.05-1.72-5.18-8.27-16-16.12h0C110,103.13,102.21,100.25,100.55,100.74Z"/><path class="cls-1" d="M96.77,101.28A18.16,18.16,0,0,1,90,99.35a86.7,86.7,0,0,1-14.85-8.92A86.68,86.68,0,0,1,62.1,79c-3.81-4.27-5-7.11-3.62-9s4.4-1.62,9.62.71A86.2,86.2,0,0,1,83,79.71h0a87.25,87.25,0,0,1,13,11.4c3.81,4.26,5,7.1,3.62,8.94A3.24,3.24,0,0,1,96.77,101.28ZM61,71.89c0,1.72,5.17,8.26,16,16.12S95.49,98.75,97.15,98.26C97.1,96.54,92,90,81.18,82.14S62.6,71.41,61,71.89Z"/><path class="cls-2" d="M98.66,100.89a1.5,1.5,0,0,0,0-3,1.5,1.5,0,0,0,0,3Z"/></svg>