<svg id="Layer_1" data-name="Layer 1" xmlns="http://www.w3.org/2000/svg" viewBox="0 0 198 198"><defs><style>.cls-1{fill:#231f20;}</style></defs><path class="cls-1" d="M102.21,143.91h-3V44.53l1.53,0c.24,0,24.21.62,30,22.57a17.31,17.31,0,0,1-2,14c-6.31,10.22-22,14.78-26.51,15.91Zm0-96.26V93.91c4.94-1.33,18.61-5.69,24-14.38a14.43,14.43,0,0,0,1.63-11.65C123.38,51,107.3,48.13,102.21,47.65Z"/><path class="cls-1" d="M99.61,144.12c-1-.17-23.56-4.43-30.77-16.25a14.6,14.6,0,0,1-1.47-12.3C73.63,94.9,99.6,94.33,99.87,94.33l0,3c-.24,0-24,.56-29.67,19.11a11.58,11.58,0,0,0,1.16,9.86c6.51,10.68,28.53,14.83,28.76,14.87Z"/><path class="cls-1" d="M100.65,38c2.51,0,2.51-3.9,0-3.9s-2.52,3.9,0,3.9Z"/><path class="cls-1" d="M100.65,154c2.51,0,2.51-3.9,0-3.9s-2.52,3.9,0,3.9Z"/></svg>