<svg id="Layer_1" data-name="Layer 1" xmlns="http://www.w3.org/2000/svg" viewBox="0 0 198 198"><defs><style>.cls-1{fill:#231f20;}.cls-2{fill:#fff;}</style></defs><rect class="cls-1" x="93.27" y="109.71" width="3" height="49.41"/><circle class="cls-1" cx="94.25" cy="85.34" r="23.57"/><path class="cls-1" d="M94.25,110.41a25.07,25.07,0,1,1,25.06-25.07A25.09,25.09,0,0,1,94.25,110.41Zm0-47.13a22.07,22.07,0,1,0,22.06,22.06A22.09,22.09,0,0,0,94.25,63.28Z"/><path class="cls-2" d="M93.92,87.34c2.51,0,2.52-3.9,0-3.9s-2.51,3.9,0,3.9Z"/><rect class="cls-1" x="79.62" y="135.45" width="30.72" height="3"/><rect class="cls-1" x="75.84" y="41.28" width="3" height="24.48" transform="translate(-16.71 52.57) rotate(-34.11)"/><polygon class="cls-1" points="71.48 52.2 68.48 52.17 68.6 39.93 79.01 45.74 77.55 48.36 71.55 45.02 71.48 52.2"/><path class="cls-1" d="M103.1,64.92c-2.79-1.74-3.37-7.67-2.71-12.78.89-6.83,3.84-11.66,7.89-12.92,4.34-1.35,9.49,1.23,15.28,7.68l-2.23,2c-4.87-5.42-9.07-7.77-12.16-6.81-3.42,1.06-5.24,6.09-5.81,10.44-.67,5.17.32,9.22,1.33,9.85Z"/><path class="cls-1" d="M122.68,55c-2.52-4.63-3-7.2-1.44-8.59,2-1.84,6.05.37,8.28,1.85l-1.66,2.5a13.44,13.44,0,0,0-4.49-2.06c0,.49.29,1.82,1.95,4.87Z"/></svg>