<svg id="Layer_1" data-name="Layer 1" xmlns="http://www.w3.org/2000/svg" viewBox="0 0 198 198"><defs><style>.cls-1{fill:#231f20;}</style></defs><rect class="cls-1" x="96.97" y="41.33" width="3" height="38.69"/><rect class="cls-1" x="90.12" y="51.5" width="17.75" height="3"/><rect class="cls-1" x="42.53" y="98.03" width="38.69" height="3"/><rect class="cls-1" x="52.7" y="90.12" width="3" height="17.75"/><rect class="cls-1" x="96.83" y="117.98" width="3" height="38.69"/><rect class="cls-1" x="88.93" y="143.5" width="17.75" height="3"/><rect class="cls-1" x="116.78" y="98.17" width="38.69" height="3"/><rect class="cls-1" x="142.3" y="91.32" width="3" height="17.75"/><path class="cls-1" d="M98,118.15A19.13,19.13,0,1,1,117.08,99,19.14,19.14,0,0,1,98,118.15ZM98,82.9A16.13,16.13,0,1,0,114.08,99,16.14,16.14,0,0,0,98,82.9Z"/><path class="cls-1" d="M114.28,92.06l-.28-3,.14,1.49L114,89.08c1-.1,24.47-2.66,27.91-28.87l3,.39c-2,14.94-10.17,22.7-16.71,26.59A36.47,36.47,0,0,1,114.28,92.06Z"/><path class="cls-1" d="M54.14,140.69c-1.42-27.59,27.59-33.9,27.89-34l.6,2.93a40.85,40.85,0,0,0-13.38,6c-8.58,6-12.65,14.37-12.12,24.83Z"/><rect class="cls-1" x="66.75" y="46.42" width="3" height="45.87" transform="translate(-29.04 67.74) rotate(-44.51)"/><rect class="cls-1" x="125.62" y="105.81" width="3" height="46.86" transform="translate(-54.14 126.18) rotate(-44.51)"/><rect class="cls-1" x="50.67" y="53" width="3" height="14.96"/><rect class="cls-1" x="51.03" y="51.5" width="15.48" height="3"/><rect class="cls-1" x="131.59" y="145.67" width="13.49" height="2.5"/><rect class="cls-1" x="142.34" y="134.09" width="3" height="13.82"/><path class="cls-1" d="M142.75,60.89c-4.44,0-7.87-1-8.49-1.91-.28-.41-.62-.92-.26-7.86l3,.16c-.12,2.14-.18,4.68-.14,5.85A25.13,25.13,0,0,0,150,56.9a31.22,31.22,0,0,0-.4-5.48l3-.44c1.16,7.9-.16,8.32-1,8.59A29.42,29.42,0,0,1,142.75,60.89Zm-5.84-3.22Z"/><path class="cls-1" d="M98.38,101.62c2.51,0,2.51-3.9,0-3.9s-2.52,3.9,0,3.9Z"/><path class="cls-1" d="M65.63,150.31l-3-.44a31.22,31.22,0,0,0,.4-5.48,25.09,25.09,0,0,0-13.14-.23c-.05,1.17,0,3.71.13,5.85l-3,.16c-.37-6.94,0-7.45.25-7.86,1-1.48,9.23-3.13,17.29-.59C65.47,142,66.8,142.41,65.63,150.31Zm-16.19-6Z"/></svg>